# xmcd
#
# Track frame offsets:
#	150
#	14499
#	38478
#	57790
#	75081
#	94992
#	110660
#	130898
#	155232
#	170386
#
# Disc length: 2312 seconds
#
# Revision: 0
# Processed by: cddbd v1.5.1PL2 Copyright (c) Steve Scherf et al.
# Submitted via: dBpowerAMP V4.0
#
DISCID=7609060a
DTITLE=Pauline Taylor-Hunt - God Uses Ordinary People
DYEAR=1900
DGENRE=Gospel
TTITLE0=Where Could I Go?
TTITLE1=Open My Heart
TTITLE2=Turning It Over to You
TTITLE3=Lift Every Voice and Sing
TTITLE4=If My Pillow Could Speak
TTITLE5=I Know It Won't Be This Way Always
TTITLE6=Just Across The River
TTITLE7=Just Ordinary People
TTITLE8=America Medley
TTITLE9=Turning It Over 
EXTD=
EXTT0=
EXTT1=
EXTT2=
EXTT3=
EXTT4=
EXTT5=
EXTT6=
EXTT7=
EXTT8=
EXTT9=
PLAYORDER=
